<svg width="55" height="55" viewBox="0 0 55 55" fill="none" xmlns="http://www.w3.org/2000/svg">
<circle cx="27.5" cy="27.5" r="27" stroke="white"/>
<path d="M39.9318 22H36.4091C36.2008 20.9867 35.8362 20.0966 35.3153 19.3295C34.804 18.5625 34.179 17.9186 33.4403 17.3977C32.7112 16.8674 31.9015 16.4697 31.0114 16.2045C30.1212 15.9394 29.1932 15.8068 28.2273 15.8068C26.4659 15.8068 24.8703 16.2519 23.4403 17.142C22.0199 18.0322 20.8883 19.3438 20.0455 21.0767C19.2121 22.8097 18.7955 24.9356 18.7955 27.4545C18.7955 29.9735 19.2121 32.0994 20.0455 33.8324C20.8883 35.5653 22.0199 36.8769 23.4403 37.767C24.8703 38.6572 26.4659 39.1023 28.2273 39.1023C29.1932 39.1023 30.1212 38.9697 31.0114 38.7045C31.9015 38.4394 32.7112 38.0464 33.4403 37.5256C34.179 36.9953 34.804 36.3466 35.3153 35.5795C35.8362 34.803 36.2008 33.9129 36.4091 32.9091H39.9318C39.6667 34.3958 39.1837 35.7263 38.483 36.9006C37.7822 38.0748 36.911 39.0739 35.8693 39.8977C34.8277 40.7121 33.6581 41.3324 32.3608 41.7585C31.0729 42.1847 29.6951 42.3977 28.2273 42.3977C25.7462 42.3977 23.5398 41.7917 21.608 40.5795C19.6761 39.3674 18.1563 37.6439 17.0483 35.4091C15.9403 33.1742 15.3864 30.5227 15.3864 27.4545C15.3864 24.3864 15.9403 21.7348 17.0483 19.5C18.1563 17.2652 19.6761 15.5417 21.608 14.3295C23.5398 13.1174 25.7462 12.5114 28.2273 12.5114C29.6951 12.5114 31.0729 12.7244 32.3608 13.1506C33.6581 13.5767 34.8277 14.2017 35.8693 15.0256C36.911 15.84 37.7822 16.8343 38.483 18.0085C39.1837 19.1733 39.6667 20.5038 39.9318 22Z" fill="#3b82f6"/>
</svg>
